<svg width="12" height="14" viewBox="0 0 12 14" fill="none" xmlns="http://www.w3.org/2000/svg">
<path fill-rule="evenodd" clip-rule="evenodd" d="M8.96812 0.49005V1.17998C10.9739 1.37457 12 2.48318 12 4.4763V9.98983C12 12.207 10.7362 13.3333 8.24928 13.3333H3.75072C1.26377 13.3333 0 12.207 0 9.98983V4.4763C0 3.14952 0.452174 2.20013 1.37971 1.64583C1.52592 1.54603 1.71509 1.53906 1.86801 1.62784C2.02094 1.71662 2.11124 1.88584 2.10113 2.06465C2.09101 2.24347 1.98222 2.40103 1.82029 2.47138C1.2058 2.83699 0.915942 3.47384 0.915942 4.4763V4.65321H9.37391C9.62684 4.65321 9.83188 4.86178 9.83188 5.11906C9.83188 5.37634 9.62684 5.58491 9.37391 5.58491H0.915942V9.98983C0.915942 11.6822 1.73913 12.3839 3.75072 12.3957H8.24928C10.2319 12.3957 11.0783 11.6763 11.0783 9.98394V4.47041C11.0783 2.9962 10.4348 2.28269 8.96812 2.11168V2.55984C8.93429 2.79871 8.72868 2.97309 8.4916 2.96399C8.25451 2.95489 8.06241 2.76524 8.04638 2.52445V0.448773C8.05087 0.324122 8.10432 0.206511 8.19476 0.122275C8.2852 0.0380393 8.40507 -0.00578539 8.52754 0.000614127C8.78003 0.0164072 8.97484 0.232821 8.96812 0.49005ZM3.80585 2.86186C3.71871 2.94939 3.60072 2.99778 3.47826 2.9962C3.2276 2.98976 3.02863 2.77949 3.03188 2.52445V0.490051C3.05824 0.251391 3.25665 0.0709649 3.49275 0.0709649C3.72885 0.0709649 3.92727 0.251391 3.95362 0.490051V1.1328H6.57391C6.82684 1.1328 7.03188 1.34137 7.03188 1.59865C7.03188 1.85593 6.82684 2.0645 6.57391 2.0645H3.94203V2.53035C3.94204 2.65493 3.89299 2.77432 3.80585 2.86186ZM8.7942 7.0768C8.47404 7.0768 8.21449 7.34081 8.21449 7.66649C8.21449 7.99216 8.47404 8.25617 8.7942 8.25617C9.11437 8.25617 9.37391 7.99216 9.37391 7.66649C9.37392 7.50906 9.31205 7.35818 9.20208 7.24742C9.0921 7.13666 8.94316 7.07523 8.78841 7.0768H8.7942ZM5.43188 7.66649C5.43188 7.34081 5.69143 7.0768 6.01159 7.0768C6.33176 7.0768 6.5913 7.34081 6.5913 7.66649C6.5913 7.99216 6.33176 8.25617 6.01159 8.25617C5.69143 8.25617 5.43188 7.99216 5.43188 7.66649ZM3.23478 7.0768C2.91462 7.0768 2.65507 7.34081 2.65507 7.66649C2.65507 7.99216 2.91462 8.25617 3.23478 8.25617C3.55495 8.25617 3.81449 7.99216 3.81449 7.66649C3.8145 7.50906 3.75263 7.35818 3.64266 7.24742C3.53268 7.13666 3.38374 7.07523 3.22899 7.0768H3.23478ZM8.21449 10.0547C8.21449 9.72903 8.47404 9.46502 8.7942 9.46502H8.78841C8.94316 9.46344 9.0921 9.52487 9.20208 9.63563C9.31205 9.74639 9.37392 9.89728 9.37391 10.0547C9.37391 10.3804 9.11437 10.6444 8.7942 10.6444C8.47404 10.6444 8.21449 10.3804 8.21449 10.0547ZM6.01159 9.46502C5.69143 9.46502 5.43188 9.72903 5.43188 10.0547C5.43188 10.3804 5.69143 10.6444 6.01159 10.6444C6.33176 10.6444 6.5913 10.3804 6.5913 10.0547C6.5913 9.72903 6.33176 9.46502 6.01159 9.46502ZM2.65507 10.0547C2.65507 9.72903 2.91462 9.46502 3.23478 9.46502H3.22899C3.38374 9.46344 3.53268 9.52487 3.64266 9.63563C3.75263 9.74639 3.8145 9.89728 3.81449 10.0547C3.81449 10.3804 3.55495 10.6444 3.23478 10.6444C2.91462 10.6444 2.65507 10.3804 2.65507 10.0547Z" fill="#130F26"/>
</svg>
