<svg width="24" height="24" viewBox="0 0 24 24" fill="none" xmlns="http://www.w3.org/2000/svg">
<path fill-rule="evenodd" clip-rule="evenodd" d="M12.1646 18.6666C11.2612 18.6666 10.3806 18.6566 9.50923 18.6386C8.39456 18.6166 7.62323 17.8939 7.49723 16.7526C7.28723 14.8593 6.92789 10.3966 6.92456 10.3519C6.90189 10.0766 7.10723 9.83527 7.38256 9.81327C7.65389 9.80594 7.89923 9.9966 7.92123 10.2713C7.92456 10.3166 8.28323 14.7639 8.49123 16.6426C8.56256 17.2913 8.91256 17.6259 9.52989 17.6386C11.1966 17.6739 12.8972 17.6759 14.7306 17.6426C15.3866 17.6299 15.7412 17.3019 15.8146 16.6379C16.0212 14.7753 16.3812 10.3166 16.3852 10.2713C16.4072 9.9966 16.6506 9.8046 16.9232 9.81327C17.1986 9.83594 17.4039 10.0766 17.3819 10.3519C17.3779 10.3973 17.0166 14.8713 16.8086 16.7479C16.6792 17.9126 15.9099 18.6213 14.7486 18.6426C13.8599 18.6579 13.0026 18.6666 12.1646 18.6666Z" fill="#D00000"/>
<path fill-rule="evenodd" clip-rule="evenodd" d="M17.8053 8.65942H6.5C6.224 8.65942 6 8.43542 6 8.15942C6 7.88342 6.224 7.65942 6.5 7.65942H17.8053C18.0813 7.65942 18.3053 7.88342 18.3053 8.15942C18.3053 8.43542 18.0813 8.65942 17.8053 8.65942Z" fill="#D00000"/>
<path fill-rule="evenodd" clip-rule="evenodd" d="M15.6274 8.6595C14.8687 8.6595 14.21 8.11883 14.0607 7.37483L13.8987 6.56416C13.8647 6.44083 13.724 6.3335 13.564 6.3335H10.742C10.582 6.3335 10.4414 6.44083 10.4007 6.59483L10.2454 7.37483C10.0967 8.11883 9.43738 8.6595 8.67871 8.6595C8.40271 8.6595 8.17871 8.4355 8.17871 8.1595C8.17871 7.8835 8.40271 7.6595 8.67871 7.6595C8.96271 7.6595 9.20938 7.45683 9.26538 7.17816L9.42738 6.3675C9.59204 5.74616 10.13 5.3335 10.742 5.3335H13.564C14.176 5.3335 14.714 5.74616 14.872 6.3375L15.0414 7.17816C15.0967 7.45683 15.3434 7.6595 15.6274 7.6595C15.9034 7.6595 16.1274 7.8835 16.1274 8.1595C16.1274 8.4355 15.9034 8.6595 15.6274 8.6595Z" fill="#D00000"/>
<circle cx="12" cy="12" r="12" fill="#D00000" fill-opacity="0.1"/>
</svg>
