<svg width="15" height="15" viewBox="0 0 15 15" fill="none" xmlns="http://www.w3.org/2000/svg">
<path fill-rule="evenodd" clip-rule="evenodd" d="M1.84562 0.75C1.24075 0.75 0.75 1.249 0.75 1.86328V2.51851C0.75 2.97353 0.923032 3.41111 1.23255 3.74024L4.62457 7.34703L4.62606 7.34475C5.2809 8.01515 5.64934 8.9214 5.64934 9.86632V13.0666C5.64934 13.2805 5.87309 13.417 6.0588 13.3161L7.99049 12.2635C8.28211 12.1043 8.46409 11.7948 8.46409 11.4589V9.85798C8.46409 8.91836 8.82731 8.01591 9.47617 7.34703L12.8682 3.74024C13.177 3.41111 13.35 2.97353 13.35 2.51851V1.86328C13.35 1.249 12.86 0.75 12.2551 0.75H1.84562Z" stroke="#130F26" stroke-width="1.5" stroke-linecap="round" stroke-linejoin="round"/>
</svg>
