<svg width="16" height="16" viewBox="0 0 16 16" fill="none" xmlns="http://www.w3.org/2000/svg">
<path fill-rule="evenodd" clip-rule="evenodd" d="M7.12754 8.00005C7.12754 8.68205 6.57487 9.23471 5.89287 9.23471C5.21087 9.23471 4.6582 8.68205 4.6582 8.00005C4.6582 7.31805 5.21087 6.76538 5.89287 6.76538H5.89487C6.5762 6.76605 7.12754 7.31871 7.12754 8.00005Z" stroke="#4F5665" stroke-linecap="round" stroke-linejoin="round"/>
<path d="M7.12891 8H11.3409V9.23467" stroke="#4F5665" stroke-linecap="round" stroke-linejoin="round"/>
<path d="M9.45443 9.23467V8" stroke="#4F5665" stroke-linecap="round" stroke-linejoin="round"/>
<path fill-rule="evenodd" clip-rule="evenodd" d="M1.83398 8.00004C1.83398 3.37537 3.37598 1.83337 8.00065 1.83337C12.6253 1.83337 14.1673 3.37537 14.1673 8.00004C14.1673 12.6247 12.6253 14.1667 8.00065 14.1667C3.37598 14.1667 1.83398 12.6247 1.83398 8.00004Z" stroke="#4F5665" stroke-linecap="round" stroke-linejoin="round"/>
</svg>
