<svg width="13" height="13" viewBox="0 0 13 13" fill="none" xmlns="http://www.w3.org/2000/svg">
<path fill-rule="evenodd" clip-rule="evenodd" d="M6.0375 0C6.24636 0 6.44666 0.0829711 6.59435 0.230654C6.74203 0.378336 6.825 0.578644 6.825 0.7875V5.25H11.2875C11.4963 5.25 11.6967 5.33297 11.8443 5.48065C11.992 5.62834 12.075 5.82864 12.075 6.0375C12.075 6.24636 11.992 6.44666 11.8443 6.59435C11.6967 6.74203 11.4963 6.825 11.2875 6.825H6.825V11.2875C6.825 11.4963 6.74203 11.6967 6.59435 11.8443C6.44666 11.992 6.24636 12.075 6.0375 12.075C5.82864 12.075 5.62834 11.992 5.48065 11.8443C5.33297 11.6967 5.25 11.4963 5.25 11.2875V6.825H0.7875C0.578644 6.825 0.378336 6.74203 0.230654 6.59435C0.0829711 6.44666 0 6.24636 0 6.0375C0 5.82864 0.0829711 5.62834 0.230654 5.48065C0.378336 5.33297 0.578644 5.25 0.7875 5.25H5.25V0.7875C5.25 0.578644 5.33297 0.378336 5.48065 0.230654C5.62834 0.0829711 5.82864 0 6.0375 0Z" fill="#0B132A"/>
</svg>
