<svg width="12" height="15" viewBox="0 0 12 15" fill="none" xmlns="http://www.w3.org/2000/svg">
<path d="M4.33333 4C4.33333 3.63181 4.63181 3.33333 5 3.33333H9C9.36819 3.33333 9.66667 3.63181 9.66667 4C9.66667 4.36819 9.36819 4.66667 9 4.66667H5C4.63181 4.66667 4.33333 4.36819 4.33333 4Z" fill="#8E6447"/>
<path d="M5 6.66667C4.63181 6.66667 4.33333 6.96514 4.33333 7.33333C4.33333 7.70152 4.63181 8 5 8H9C9.36819 8 9.66667 7.70152 9.66667 7.33333C9.66667 6.96514 9.36819 6.66667 9 6.66667H5Z" fill="#8E6447"/>
<path d="M4.33333 10.6667C4.33333 10.2985 4.63181 10 5 10H9C9.36819 10 9.66667 10.2985 9.66667 10.6667C9.66667 11.0349 9.36819 11.3333 9 11.3333H5C4.63181 11.3333 4.33333 11.0349 4.33333 10.6667Z" fill="#8E6447"/>
<path d="M3.66667 4C3.66667 4.3682 3.3682 4.66667 3 4.66667C2.6318 4.66667 2.33333 4.3682 2.33333 4C2.33333 3.6318 2.6318 3.33333 3 3.33333C3.3682 3.33333 3.66667 3.6318 3.66667 4Z" fill="#8E6447"/>
<path d="M3 8C3.3682 8 3.66667 7.70153 3.66667 7.33333C3.66667 6.96513 3.3682 6.66667 3 6.66667C2.6318 6.66667 2.33333 6.96513 2.33333 7.33333C2.33333 7.70153 2.6318 8 3 8Z" fill="#8E6447"/>
<path d="M3.66667 10.6667C3.66667 11.0349 3.3682 11.3333 3 11.3333C2.6318 11.3333 2.33333 11.0349 2.33333 10.6667C2.33333 10.2985 2.6318 10 3 10C3.3682 10 3.66667 10.2985 3.66667 10.6667Z" fill="#8E6447"/>
<path fill-rule="evenodd" clip-rule="evenodd" d="M0 1.33333C0 0.596954 0.596954 0 1.33333 0H10.6667C11.403 0 12 0.596954 12 1.33333V13.3333C12 14.0697 11.403 14.6667 10.6667 14.6667H1.33333C0.596954 14.6667 0 14.0697 0 13.3333V1.33333ZM10.6667 1.33333H1.33333V13.3333H10.6667V1.33333Z" fill="#8E6447"/>
</svg>
