<svg width="15" height="11" viewBox="0 0 15 11" fill="none" xmlns="http://www.w3.org/2000/svg">
<path d="M10.6667 4.66667H11.3333C11.5101 4.66667 11.6797 4.59643 11.8047 4.4714C11.9298 4.34638 12 4.17681 12 4V3.33333C12 3.15652 11.9298 2.98695 11.8047 2.86193C11.6797 2.7369 11.5101 2.66667 11.3333 2.66667H10.6667C10.4899 2.66667 10.3203 2.7369 10.1953 2.86193C10.0702 2.98695 10 3.15652 10 3.33333V4C10 4.17681 10.0702 4.34638 10.1953 4.4714C10.3203 4.59643 10.4899 4.66667 10.6667 4.66667ZM3.33333 5.33333H6.66667C6.84348 5.33333 7.01305 5.2631 7.13807 5.13807C7.2631 5.01305 7.33333 4.84348 7.33333 4.66667C7.33333 4.48986 7.2631 4.32029 7.13807 4.19526C7.01305 4.07024 6.84348 4 6.66667 4H3.33333C3.15652 4 2.98695 4.07024 2.86193 4.19526C2.7369 4.32029 2.66667 4.48986 2.66667 4.66667C2.66667 4.84348 2.7369 5.01305 2.86193 5.13807C2.98695 5.2631 3.15652 5.33333 3.33333 5.33333ZM14 0H0.666667C0.489856 0 0.320286 0.070238 0.195262 0.195262C0.0702379 0.320287 0 0.489856 0 0.666667V10C0 10.1768 0.0702379 10.3464 0.195262 10.4714C0.320286 10.5964 0.489856 10.6667 0.666667 10.6667H14C14.1768 10.6667 14.3464 10.5964 14.4714 10.4714C14.5964 10.3464 14.6667 10.1768 14.6667 10V0.666667C14.6667 0.489856 14.5964 0.320287 14.4714 0.195262C14.3464 0.070238 14.1768 0 14 0V0ZM13.3333 9.33333H1.33333V1.33333H13.3333V9.33333ZM3.33333 8H6.66667C6.84348 8 7.01305 7.92976 7.13807 7.80474C7.2631 7.67971 7.33333 7.51014 7.33333 7.33333C7.33333 7.15652 7.2631 6.98695 7.13807 6.86193C7.01305 6.7369 6.84348 6.66667 6.66667 6.66667H3.33333C3.15652 6.66667 2.98695 6.7369 2.86193 6.86193C2.7369 6.98695 2.66667 7.15652 2.66667 7.33333C2.66667 7.51014 2.7369 7.67971 2.86193 7.80474C2.98695 7.92976 3.15652 8 3.33333 8Z" fill="#4F5665"/>
</svg>
